<?xml version="1.0" encoding="UTF-8" standalone="no"?><!DOCTYPE svg PUBLIC "-//W3C//DTD SVG 1.1//EN" "http://www.w3.org/Graphics/SVG/1.1/DTD/svg11.dtd"><svg width="100%" height="100%" viewBox="0 0 1080 390" version="1.1" xmlns="http://www.w3.org/2000/svg" xmlns:xlink="http://www.w3.org/1999/xlink" xml:space="preserve" xmlns:serif="http://www.serif.com/" style="fill-rule:evenodd;clip-rule:evenodd;stroke-linejoin:round;stroke-miterlimit:2;"><rect id="Logo-v7-small" serif:id="Logo v7 small" x="0" y="0" width="1080" height="390" style="fill:none;"/><g id="logo-4"><g id="Logo"><g id="Text"><g transform="matrix(1,0,0,0.999931,0,-0.149286)"><text x="-8.986px" y="182.304px" style="font-family:'Arial-BoldMT', 'Arial', sans-serif;font-weight:700;font-size:248.692px;fill:#023047;">Social</text></g></g><rect x="465.031" y="101.9" width="34.049" height="184.034" style="fill:#023047;"/><g id="Text1" serif:id="Text"><g transform="matrix(1,0,0,0.999931,5.68434e-14,-0.135161)"><text x="267.707px" y="386.026px" style="font-family:'Arial-BoldMT', 'Arial', sans-serif;font-weight:700;font-size:248.692px;fill:#023047;">Chat</text></g></g></g><g id="Bubble"><clipPath id="_clip1"><rect x="801.984" y="23.6" width="278.016" height="277.996"/></clipPath><g clip-path="url(#_clip1)"><path d="M1080,153.911c-0,62.386 -62.228,112.936 -139.008,112.936c-20.145,-0 -39.259,-3.475 -56.526,-9.719c-6.462,4.723 -16.996,11.185 -29.485,16.614c-13.032,5.647 -28.725,10.479 -44.309,10.479c-3.529,0 -6.679,-2.117 -8.036,-5.375c-1.358,-3.258 -0.597,-6.95 1.846,-9.447l0.163,-0.163c0.163,-0.163 0.38,-0.38 0.706,-0.76c0.597,-0.652 1.52,-1.684 2.661,-3.095c2.226,-2.715 5.212,-6.733 8.253,-11.728c5.43,-9.014 10.589,-20.85 11.62,-34.153c-16.29,-18.46 -25.901,-41.102 -25.901,-65.589c0,-62.387 62.228,-112.936 139.008,-112.936c76.78,-0 139.008,50.549 139.008,112.936Z" style="fill:#023047;fill-rule:nonzero;"/></g><g id="Speakingbubble"><path d="M1013.45,153.979c15.758,-15.756 15.758,-41.274 -0,-57.031c-13.945,-13.944 -35.923,-15.757 -51.96,-4.295l-0.446,0.307c-4.016,2.872 -4.936,8.45 -2.064,12.438c2.873,3.988 8.451,4.936 12.439,2.064l0.446,-0.307c8.953,-6.386 21.197,-5.382 28.95,2.398c8.786,8.785 8.786,23.008 0,31.793l-31.292,31.346c-8.786,8.785 -23.01,8.785 -31.795,0c-7.781,-7.781 -8.785,-20.023 -2.399,-28.948l0.307,-0.446c2.873,-4.016 1.925,-9.593 -2.064,-12.438c-3.988,-2.845 -9.594,-1.924 -12.439,2.064l-0.306,0.446c-11.491,16.008 -9.678,37.984 4.267,51.928c15.758,15.757 41.277,15.757 57.035,-0l31.321,-31.319Zm-144.917,-6.526c-15.758,15.757 -15.758,41.275 -0,57.032c13.945,13.944 35.922,15.757 51.959,4.295l0.446,-0.307c4.016,-2.873 4.937,-8.45 2.064,-12.438c-2.873,-3.988 -8.451,-4.937 -12.439,-2.064l-0.446,0.307c-8.953,6.386 -21.197,5.382 -28.95,-2.399c-8.786,-8.812 -8.786,-23.035 -0,-31.82l31.293,-31.318c8.785,-8.785 23.009,-8.785 31.794,-0c7.782,7.78 8.786,20.023 2.399,28.975l-0.307,0.447c-2.873,4.015 -1.924,9.593 2.064,12.438c3.988,2.844 9.594,1.924 12.439,-2.064l0.307,-0.446c11.49,-16.036 9.678,-38.012 -4.267,-51.956c-15.758,-15.757 -41.278,-15.757 -57.036,0l-31.32,31.318Z" style="fill:#fff;fill-rule:nonzero;"/></g></g></g></svg>