<?xml version="1.0" encoding="UTF-8" standalone="no"?><!DOCTYPE svg PUBLIC "-//W3C//DTD SVG 1.1//EN" "http://www.w3.org/Graphics/SVG/1.1/DTD/svg11.dtd"><svg width="100%" height="100%" viewBox="0 0 1080 390" version="1.1" xmlns="http://www.w3.org/2000/svg" xmlns:xlink="http://www.w3.org/1999/xlink" xml:space="preserve" xmlns:serif="http://www.serif.com/" style="fill-rule:evenodd;clip-rule:evenodd;stroke-linejoin:round;stroke-miterlimit:2;"><rect id="Logo-v6-small" serif:id="Logo v6 small" x="0" y="0" width="1080" height="390" style="fill:none;"/><clipPath id="_clip1"><rect x="0" y="0" width="1080" height="390"/></clipPath><g clip-path="url(#_clip1)"><g id="logo-4" style="fill:#f20a0a;"><g id="Logo"><g id="Text"><text x="-8.986px" y="182.141px" style="font-family:'Arial-BoldMT', 'Arial', sans-serif;font-weight:700;font-size:248.692px;fill:#fff;">Social</text></g><rect x="465.031" y="101.894" width="34.049" height="184.047" style="fill:#fff;"/><g id="Text1" serif:id="Text"><text x="267.707px" y="385.878px" style="font-family:'Arial-BoldMT', 'Arial', sans-serif;font-weight:700;font-size:248.692px;fill:#fff;">Chat</text></g></g><g id="Bubble"><clipPath id="_clip2"><rect x="801.984" y="23.588" width="278.016" height="278.016"/></clipPath><g clip-path="url(#_clip2)"><path d="M1080,153.908c0,62.39 -62.228,112.944 -139.008,112.944c-20.145,-0 -39.259,-3.476 -56.526,-9.72c-6.462,4.724 -16.996,11.186 -29.485,16.616c-13.032,5.647 -28.725,10.48 -44.309,10.48c-3.529,-0 -6.679,-2.118 -8.036,-5.376c-1.358,-3.258 -0.597,-6.951 1.846,-9.448l0.163,-0.163c0.163,-0.163 0.38,-0.38 0.706,-0.76c0.597,-0.652 1.52,-1.684 2.661,-3.096c2.226,-2.714 5.212,-6.733 8.253,-11.728c5.43,-9.014 10.589,-20.851 11.62,-34.155c-16.29,-18.462 -25.901,-41.105 -25.901,-65.594c0,-62.391 62.228,-112.944 139.008,-112.944c76.78,-0 139.008,50.553 139.008,112.944Z" style="fill:#fff;fill-rule:nonzero;"/></g><g id="Speakingbubble"><path d="M1013.45,153.976c15.758,-15.757 15.758,-41.277 -0,-57.035c-13.945,-13.945 -35.923,-15.758 -51.96,-4.295l-0.446,0.307c-4.016,2.873 -4.936,8.451 -2.064,12.439c2.873,3.988 8.451,4.936 12.439,2.064l0.446,-0.307c8.953,-6.387 21.197,-5.383 28.95,2.399c8.786,8.785 8.786,23.009 0,31.794l-31.292,31.349c-8.786,8.785 -23.01,8.785 -31.795,-0c-7.781,-7.782 -8.785,-20.025 -2.399,-28.95l0.307,-0.446c2.873,-4.017 1.925,-9.595 -2.064,-12.439c-3.988,-2.845 -9.594,-1.925 -12.439,2.063l-0.306,0.447c-11.491,16.009 -9.678,37.986 4.267,51.931c15.758,15.758 41.277,15.758 57.035,0l31.321,-31.321Zm-144.917,-6.526c-15.758,15.758 -15.758,41.278 -0,57.035c13.945,13.946 35.922,15.758 51.959,4.296l0.446,-0.307c4.016,-2.873 4.937,-8.451 2.064,-12.439c-2.873,-3.989 -8.451,-4.937 -12.439,-2.064l-0.446,0.307c-8.953,6.387 -21.197,5.382 -28.95,-2.399c-8.786,-8.813 -8.786,-23.037 -0,-31.822l31.293,-31.321c8.785,-8.785 23.009,-8.785 31.794,-0c7.782,7.781 8.786,20.025 2.399,28.978l-0.307,0.446c-2.873,4.016 -1.924,9.594 2.064,12.439c3.988,2.845 9.594,1.924 12.439,-2.064l0.307,-0.446c11.49,-16.037 9.678,-38.014 -4.267,-51.959c-15.758,-15.758 -41.278,-15.758 -57.036,-0l-31.32,31.32Z" style="fill:#8ecae6;fill-rule:nonzero;"/></g></g></g></g></svg>