<?xml version="1.0" standalone="no"?>
<!DOCTYPE svg PUBLIC "-//W3C//DTD SVG 20010904//EN"
 "http://www.w3.org/TR/2001/REC-SVG-20010904/DTD/svg10.dtd">
<svg version="1.0" xmlns="http://www.w3.org/2000/svg"
 width="1080.000000pt" height="1080.000000pt" viewBox="0 0 1080.000000 1080.000000"
 preserveAspectRatio="xMidYMid meet">
<metadata>
Created by potrace 1.14, written by Peter Selinger 2001-2017
</metadata>
<g transform="translate(0.000000,1080.000000) scale(0.100000,-0.100000)"
fill="#000000" stroke="none">
<path d="M574 7330 c-311 -39 -504 -227 -504 -491 0 -137 52 -254 153 -345 92
-83 196 -126 503 -209 115 -32 231 -69 259 -84 124 -66 137 -199 30 -307 -70
-70 -126 -89 -270 -89 -86 0 -122 4 -164 20 -103 38 -193 147 -220 264 -5 24
-11 45 -14 47 -2 2 -81 -3 -176 -13 l-171 -17 6 -35 c42 -249 157 -415 348
-501 119 -54 181 -64 391 -64 163 1 201 4 270 22 209 57 339 171 403 356 19
56 24 90 24 167 0 247 -113 406 -354 499 -44 17 -174 56 -287 86 -310 82 -391
129 -391 230 0 114 131 181 332 172 162 -8 234 -57 279 -191 17 -51 18 -52 61
-55 24 -2 103 -1 176 3 l132 7 0 37 c0 55 -27 147 -62 213 -68 129 -215 230
-378 262 -98 19 -286 27 -376 16z"/>
<path d="M4650 7150 l0 -160 170 0 170 0 0 160 0 160 -170 0 -170 0 0 -160z"/>
<path d="M6727 7303 c-4 -3 -7 -404 -7 -890 l0 -883 170 0 170 0 0 890 0 890
-163 0 c-90 0 -167 -3 -170 -7z"/>
<path d="M9265 6934 c-551 -56 -994 -345 -1169 -761 -132 -313 -83 -671 131
-951 l56 -73 -13 -62 c-15 -79 -61 -200 -100 -260 l-30 -47 -115 0 -115 0 0
226 c0 124 -4 224 -8 222 -4 -1 -81 -45 -170 -97 l-162 -94 0 -128 0 -129 -80
0 -80 0 0 -135 0 -135 80 0 80 0 0 -352 c1 -388 8 -478 45 -553 44 -90 146
-137 296 -138 88 0 214 21 248 42 10 7 11 30 0 127 -6 66 -15 122 -18 126 -4
4 -36 2 -71 -6 -95 -19 -136 -3 -150 60 -5 21 -10 186 -10 367 l0 327 139 0
c79 0 171 6 214 14 159 31 363 114 514 211 l70 45 44 -16 c171 -61 446 -93
651 -75 386 33 698 169 939 410 156 157 238 295 291 489 28 106 31 314 4 427
-104 448 -532 805 -1081 900 -88 16 -351 27 -430 19z m761 -478 c84 -42 148
-107 191 -194 26 -52 28 -67 28 -167 0 -163 -12 -182 -249 -423 -105 -107
-209 -207 -232 -222 -113 -79 -271 -91 -397 -32 -211 98 -294 349 -185 555 47
88 101 108 157 61 37 -31 42 -80 12 -128 -55 -88 -48 -191 17 -266 66 -78 169
-101 262 -59 63 28 382 346 415 413 56 112 15 241 -94 298 -72 38 -130 37
-207 -2 -69 -35 -102 -37 -137 -10 -62 49 -40 119 51 168 80 43 122 52 216 47
66 -3 91 -9 152 -39z m-653 -161 c166 -43 279 -164 308 -329 19 -112 -24 -265
-89 -317 -57 -45 -142 -6 -142 64 0 19 12 56 27 83 54 96 28 221 -59 284 -75
55 -157 62 -236 20 -54 -27 -398 -377 -417 -422 -19 -46 -20 -128 -2 -171 54
-128 190 -172 326 -106 68 33 97 33 131 -1 47 -47 33 -106 -37 -150 -112 -72
-267 -80 -385 -22 -84 41 -154 111 -192 192 -29 60 -31 73 -31 170 0 98 2 110
33 175 29 62 57 94 235 271 163 162 213 206 260 228 99 46 177 55 270 31z"/>
<path d="M2240 6839 c-279 -32 -480 -213 -550 -494 -19 -76 -22 -107 -17 -200
14 -281 125 -466 341 -569 402 -193 850 1 962 414 24 88 25 281 1 370 -31 119
-83 207 -171 295 -48 47 -106 93 -141 112 -118 62 -276 89 -425 72z m174 -280
c133 -37 219 -163 233 -338 11 -144 -24 -265 -99 -347 -59 -64 -107 -86 -199
-92 -67 -4 -84 -1 -132 21 -141 64 -205 198 -195 404 7 134 33 200 108 275 80
79 179 106 284 77z"/>
<path d="M3723 6840 c-234 -25 -413 -167 -488 -388 -32 -93 -49 -239 -41 -344
22 -295 162 -496 401 -575 69 -22 98 -26 205 -27 187 -1 297 31 408 116 83 64
167 204 187 309 l7 36 -139 22 c-76 13 -150 25 -164 28 -23 4 -26 1 -42 -54
-32 -116 -98 -173 -210 -181 -87 -7 -142 13 -203 72 -43 42 -56 63 -73 120
-46 151 -35 382 24 482 59 100 177 144 303 112 61 -15 127 -81 144 -143 7 -25
17 -45 23 -45 11 0 266 47 302 55 21 5 21 7 9 44 -70 195 -210 319 -401 351
-84 14 -176 18 -252 10z"/>
<path d="M5738 6839 c-229 -20 -366 -119 -434 -312 -8 -22 -13 -42 -11 -44 5
-4 267 -53 288 -53 9 0 24 18 34 40 42 94 135 131 274 112 43 -6 85 -18 100
-29 40 -30 62 -81 59 -138 l-3 -49 -60 -19 c-33 -10 -132 -33 -220 -53 -184
-40 -270 -66 -339 -102 -158 -85 -219 -305 -134 -481 31 -65 108 -138 176
-168 175 -77 402 -44 558 83 l53 43 22 -69 23 -70 168 0 167 0 -20 47 c-48
112 -51 147 -54 553 -3 430 -9 479 -68 557 -71 93 -178 138 -366 153 -64 5
-118 9 -121 8 -3 0 -44 -4 -92 -9z m310 -825 c-4 -87 -8 -108 -31 -146 -46
-79 -156 -134 -253 -126 -134 11 -216 150 -149 252 28 42 85 66 265 111 140
35 166 39 169 25 2 -8 1 -60 -1 -116z"/>
<path d="M4650 5155 l0 -1665 170 0 170 0 0 348 c0 380 8 485 41 562 43 99
153 159 267 146 59 -7 85 -18 120 -50 58 -52 57 -43 62 -541 l5 -460 168 -3
167 -2 0 457 c0 252 -5 486 -10 521 -11 81 -56 177 -106 225 -89 87 -256 133
-396 109 -95 -17 -185 -61 -258 -129 l-60 -55 0 1101 0 1101 -170 0 -170 0 0
-1665z"/>
<path d="M3505 5294 c-11 -2 -47 -10 -80 -16 -211 -40 -410 -188 -511 -381
-87 -167 -119 -329 -111 -575 6 -191 25 -284 87 -417 88 -191 270 -350 469
-409 188 -56 450 -37 614 45 127 63 222 158 291 289 32 63 82 198 75 205 -14
12 -333 105 -339 98 -4 -4 -17 -38 -29 -74 -58 -177 -180 -278 -346 -287 -100
-5 -177 14 -252 64 -144 94 -204 257 -204 554 0 168 18 276 60 367 32 67 94
141 146 173 95 59 247 78 358 46 103 -30 194 -117 233 -224 10 -26 19 -49 20
-51 2 -1 81 16 178 39 l174 41 -18 53 c-28 81 -66 156 -108 211 -78 103 -221
193 -362 230 -63 16 -302 29 -345 19z"/>
<path d="M6515 4796 c-195 -33 -298 -111 -371 -282 -15 -35 -25 -66 -23 -68 6
-5 301 -58 304 -54 1 2 10 20 20 40 23 50 75 95 127 109 57 15 185 6 233 -17
46 -21 74 -78 75 -146 l0 -46 -47 -16 c-27 -9 -136 -36 -243 -60 -276 -63
-350 -93 -419 -172 -71 -80 -100 -189 -82 -302 28 -173 159 -290 348 -312 159
-18 296 21 421 119 28 22 53 37 55 33 2 -4 12 -35 22 -69 l18 -63 168 0 168 0
-30 81 c-40 109 -53 271 -45 539 6 228 -4 400 -30 474 -31 90 -128 165 -260
200 -82 23 -308 29 -409 12z m363 -803 c-3 -82 -9 -127 -20 -148 -39 -72 -132
-130 -228 -142 -41 -5 -59 -1 -102 20 -71 35 -103 83 -103 153 0 59 22 97 73
127 24 14 333 101 376 106 5 1 6 -52 4 -116z"/>
</g>
</svg>
