<?xml version="1.0" encoding="UTF-8" standalone="no"?><!DOCTYPE svg PUBLIC "-//W3C//DTD SVG 1.1//EN" "http://www.w3.org/Graphics/SVG/1.1/DTD/svg11.dtd"><svg width="100%" height="100%" viewBox="0 0 1080 1080" version="1.1" xmlns="http://www.w3.org/2000/svg" xmlns:xlink="http://www.w3.org/1999/xlink" xml:space="preserve" xmlns:serif="http://www.serif.com/" style="fill-rule:evenodd;clip-rule:evenodd;stroke-linecap:round;stroke-linejoin:round;stroke-miterlimit:1.5;"><rect id="Logo-v3" serif:id="Logo v3" x="0" y="0" width="1080" height="1080" style="fill:none;"/><circle cx="540" cy="540" r="486.154" style="fill:#8ecae6;stroke:#023047;stroke-width:12.5px;"/><circle cx="540" cy="540" r="467.001" style="fill:#8ecae6;stroke:#023047;stroke-width:12.5px;"/><g id="Logo"><g id="Speakingbubble"><path d="M827.847,413.144c-0,-100.945 -128.98,-182.9 -287.847,-182.9c-158.867,0 -287.847,81.955 -287.847,182.9c0,59.655 45.786,115.561 122.676,149.792l-36.322,124.558l126.911,-97.696c24.324,4.146 49.398,6.246 74.582,6.246c158.867,0 287.847,-81.955 287.847,-182.9Z" style="fill:#023047;"/><path d="M629.865,407.63c19.544,-19.544 19.544,-51.194 0,-70.737c-17.295,-17.295 -44.552,-19.543 -64.441,-5.327l-0.554,0.381c-4.981,3.562 -6.122,10.48 -2.559,15.427c3.562,4.946 10.48,6.122 15.427,2.559l0.553,-0.38c11.104,-7.921 26.289,-6.676 35.905,2.975c10.896,10.896 10.896,28.537 -0,39.432l-38.81,38.88c-10.896,10.896 -28.537,10.896 -39.433,-0c-9.651,-9.651 -10.896,-24.836 -2.975,-35.905l0.381,-0.553c3.562,-4.981 2.386,-11.899 -2.56,-15.427c-4.946,-3.529 -11.899,-2.387 -15.427,2.559l-0.381,0.554c-14.251,19.854 -12.002,47.112 5.293,64.407c19.543,19.543 51.193,19.543 70.736,-0l38.845,-38.845Zm-179.73,-8.094c-19.544,19.543 -19.544,51.193 -0,70.737c17.295,17.295 44.552,19.543 64.441,5.327l0.554,-0.381c4.981,-3.563 6.122,-10.481 2.559,-15.427c-3.562,-4.947 -10.48,-6.123 -15.427,-2.56l-0.553,0.381c-11.104,7.921 -26.289,6.676 -35.905,-2.975c-10.896,-10.931 -10.896,-28.572 0,-39.468l38.81,-38.844c10.896,-10.896 28.537,-10.896 39.433,-0c9.651,9.65 10.896,24.835 2.975,35.939l-0.381,0.553c-3.562,4.981 -2.386,11.899 2.56,15.428c4.946,3.528 11.899,2.386 15.427,-2.56l0.381,-0.554c14.251,-19.889 12.002,-47.146 -5.293,-64.441c-19.543,-19.543 -51.193,-19.543 -70.736,-0l-38.845,38.845Z" style="fill:#fff;fill-rule:nonzero;"/></g><g id="Text"><text x="296.323px" y="803.858px" style="font-family:'ArialMT', 'Arial', sans-serif;font-size:100px;fill:#023047;">SocialChat</text><g transform="matrix(1,0,0,0.98992,-7.10543e-15,-2.39589)"><text x="300.649px" y="853.3px" style="font-family:'ArialMT', 'Arial', sans-serif;font-size:37.882px;fill:#023047;">V<tspan x="323.826px 344.894px " y="853.3px 853.3px ">er</tspan>knüpfe dein Social Media</text></g></g></g></svg>